<svg xmlns="http://www.w3.org/2000/svg" width="214" height="58" viewBox="0 0 214 58">
    <style>
        .wordmark {
        fill: white;
        }
        .logomark {
        fill: white;
        }
    </style>
    <path class="logomark"
          d="M40.78163,48.1277a5.66968,5.66968,0,0,0-2.69672.755c-1.29312,1.57548,4.06759,1.86806.47878,3.6195a5.171,5.171,0,0,1-2.89519.27827c-1.40361-.309-2.46552-1.19082-2.07676-2.19748a6.50933,6.50933,0,0,1,4.41543-3.11821c6.65587-1.49568,11.24112-.87163,17.96246-1.76985,2.52485-.29259,2.754.03069,2.74378-1.60208a13.22375,13.22375,0,0,0-2.31411-2.7581c-6.73976-5.72286-17.6044-7.38427-28.26853-7.89784L28.141,33.529c4.6098,2.22612,8.11881,4.85328,12.18231,7.27583a14.56216,14.56216,0,0,0,7.76075,1.13353L48.96591,43.033l-0.14118.08593-15.54605.96165H33.11909A40.61478,40.61478,0,0,0,11.41436,30.16115a11.84768,11.84768,0,0,0-5.78015-.09207c-1.67778.888-.46037,3.53357-4.29675,2.86041a2.21074,2.21074,0,0,1-1.1458-.7284,1.70988,1.70988,0,0,1,1.0169-2.4205c3.79956-1.88648,10.11987-.78365,15.368-0.9637,2.93407-.08389,6.24052-0.534,7.01189-2.355a2.65809,2.65809,0,0,0-2.11359-1.86806,9.752,9.752,0,0,0-4.40315-.00818,4.44,4.44,0,0,1-1.47931-.83275,13.411,13.411,0,0,1,8.5669-1.06191,18.165,18.165,0,0,1,3.96529,1.375,6.88164,6.88164,0,0,0,2.91156-2.53508c0.80411-1.34018-.34374-2.85222-2.263-3.908a8.87443,8.87443,0,0,0-5.63079-1.3811l-1.64913.178-0.85321-.90436a15.25077,15.25077,0,0,1,9.76794-.37443,20.07323,20.07323,0,0,1,6.05023,3.063,25.6187,25.6187,0,0,1,5.5203-2.77857A35.99859,35.99859,0,0,1,56.49546,14.656l-0.01228-.09207a22.64785,22.64785,0,0,1-8.42777-4.05736C45.92136,9.148,44.56686,6.95051,41.16424,6.53515a12.87136,12.87136,0,0,0-4.665.96165,5.38693,5.38693,0,0,1-1.65323-.9371,22.29512,22.29512,0,0,1,13.70459-.89209c6.5904,1.7187,7.12237,5.8845,12.66314,8.40526,0.48492,0.21688.976,0.41331,1.47113,0.61587V0h1.01485V58H62.68483l0.002-9.36078c-6.5106,1.85579-13.68208-.534-21.90525-0.51152m21.89706-29.134,0.00614-2.40618V16.56909a20.90677,20.90677,0,0,0-10.75415.80206l-4.09624,2.02766L32.28838,28.5427c-3.08343,1.7453-7.5275,1.8742-11.9286,2.06039L20.37,30.69722c5.0763,0.931,11.93474,1.7944,16.36653.34988l4.85328-2.38367L54.70515,20.9661a18.4102,18.4102,0,0,1,7.97354-1.97241m0.00614,9.59812V23.78559l-6.9014,4.00621c-0.1023.01841-.06752,0.08389-0.05729,0.133Zm0,7.87329,0.002-6.70293-8.58532-.86753-1.16217.78365a25.86849,25.86849,0,0,0,9.74544,6.78682m0,4.96582V37.84005a28.31354,28.31354,0,0,1-11.3066-7.329l-6.62109,3.93869c6.40625,1.38928,12.8391,5.00265,15.41715,8.66921Z"/>
    <g class="wordmark">
        <path d="M69.73968,48.29139V43.7041H68.90079V43.61816a0.44914,0.44914,0,0,1,.54835-0.46446h2.31615v0.088a0.4899,0.4899,0,0,1-.59336.46241H70.75249v4.32949a1.87923,1.87923,0,0,0,1.9274,2.27319,1.82493,1.82493,0,0,0,2.02356-2.10132V43.70409H73.6927V43.61816a0.45308,0.45308,0,0,1,.54835-0.46446h2.23022v0.088a0.48465,0.48465,0,0,1-.59336.46241H75.45845v4.58729A2.60671,2.60671,0,0,1,72.60418,50.984a2.5069,2.5069,0,0,1-2.8645-2.69263"/>
        <path d="M80.03143,50.89808V50.81215a0.44512,0.44512,0,0,1,.53812-0.46446h0.1289V47.4525c0-.92687-0.33351-1.27061-1.04555-1.27061a1.9095,1.9095,0,0,0-1.27061.55858v3.60723h0.84093v0.088a0.52219,0.52219,0,0,1-.62405.46241H76.74544V50.81215a0.4547,0.4547,0,0,1,.5504-0.46446h0.15959V46.61156a0.94226,0.94226,0,0,1-.622-0.67725v-0.088l1.3013-.41944h0.24757v0.92482h0.043a2.24644,2.24644,0,0,1,1.60617-.83889,1.40541,1.40541,0,0,1,1.59184,1.59389v3.241h0.8839v0.088a0.52219,0.52219,0,0,1-.62405.46241H80.03143"/>
        <path d="M83.20284,50.89808V50.81215a0.4547,0.4547,0,0,1,.5504-0.46446h0.16164V46.61156a0.93223,0.93223,0,0,1-.62405-0.67725v-0.088l1.30335-.41944h0.37647a8.84127,8.84127,0,0,0-.13095,1.67982v3.241h0.84093v0.088a0.52107,0.52107,0,0,1-.62405.46241H83.20284m0.59336-7.40883a0.57781,0.57781,0,0,1,.57059-0.58494q0.02676-.00033.05347,0.00181a0.58722,0.58722,0,0,1,.00169,1.17444H84.42025a0.60423,0.60423,0,0,1-.62386-0.58394Z"/>
        <path d="M88.18911,50.984a5.17732,5.17732,0,0,0-.37853-1.18672l-1.508-3.64814H85.873V46.06322a0.42149,0.42149,0,0,1,.50538-0.46446H88.273V45.6847a0.48945,0.48945,0,0,1-.59132.46446H87.34818v0.03274l1.38724,3.58472,1.21946-3.58472V46.14915H89.11394V46.06322a0.42149,0.42149,0,0,1,.50538-0.46446h1.50591V45.6847a0.44876,0.44876,0,0,1-.49106.46446H90.56665l-1.78622,4.74893-0.59132.08593"/>
        <path d="M91.469,48.37732a2.65593,2.65593,0,0,1,2.33958-2.9384q0.06894-.00782.13821-0.012a1.59516,1.59516,0,0,1,1.79736,1.36329q0.00766,0.05575.01136,0.11193a2.95628,2.95628,0,0,1-.11867.96984l-3.243.16164v0.17187a1.81722,1.81722,0,0,0,1.50674,2.0819q0.087,0.01395.17513,0.01942a1.5962,1.5962,0,0,0,1.30335-.58313H95.4629a0.38519,0.38519,0,0,1,.088.24758A1.49116,1.49116,0,0,1,93.826,50.984a2.32844,2.32844,0,0,1-2.35708-2.6067m3.32691-1.01076a1.09789,1.09789,0,0,0,.0757-0.46446,0.92319,0.92319,0,0,0-1.00053-1.01281,1.73419,1.73419,0,0,0-1.47726,1.71256Z"/>
        <path d="M96.72123,50.89808V50.81215a0.4547,0.4547,0,0,1,.5504-0.46446h0.16164V46.61156a0.9412,0.9412,0,0,1-.62405-0.67725v-0.088l1.30335-.41944h0.24553v0.96984h0.043l0.54835-.55039a0.91711,0.91711,0,0,1,.712-0.33351,0.57,0.57,0,0,1,.5914.5478q0.00088,0.02277-.00008.04556a1.06727,1.06727,0,0,1-.2046.667H99.96221a0.5125,0.5125,0,0,0-.5463-0.33351,1.47378,1.47378,0,0,0-1.05782.37648V50.3477H99.4998v0.088a0.53132,0.53132,0,0,1-.58632.46993q-0.02414-.00266-0.048-0.00752H96.72123"/>
        <path d="M100.82156,50.34769v-0.1289a0.77163,0.77163,0,0,1,.66906-0.83889h0.17187l0.29054,0.83889a1.23956,1.23956,0,0,0,.76319.2578,0.99537,0.99537,0,0,0,1.17445-.96779,0.87735,0.87735,0,0,0-.755-0.798l-0.72022-.2578a1.6105,1.6105,0,0,1-1.30335-1.508,1.66078,1.66078,0,0,1,1.7814-1.53068q0.05683,0.0043.11326,0.0125a2.99032,2.99032,0,0,1,1.72484.50742v0.08389a0.73782,0.73782,0,0,1-.61878.84015l-0.00528.00078H103.9766l-0.37853-.753a0.8244,0.8244,0,0,0-.5463-0.17187,0.85248,0.85248,0,0,0-.31544,1.67552l0.0249,0.0043,0.79592,0.30077a1.5226,1.5226,0,0,1,1.26038,1.50591,1.76928,1.76928,0,0,1-1.9338,1.5878q-0.0843-.00828-0.16751-0.0246a3.09711,3.09711,0,0,1-1.89466-.63633"/>
        <path d="M105.83853,50.89808V50.81215a0.45308,0.45308,0,0,1,.54835-0.46446h0.16164V46.61156a0.92835,0.92835,0,0,1-.62405-0.67725v-0.088l1.30335-.41944h0.37853a8.84127,8.84127,0,0,0-.13095,1.67982v3.241h0.83889v0.088a0.52219,0.52219,0,0,1-.62405.46241h-1.8517m0.59336-7.40883a0.57671,0.57671,0,0,1,.56827-0.585q0.02792-.0004.05578,0.00189a0.58722,0.58722,0,0,1,.00169,1.17444h-0.00169a0.60423,0.60423,0,0,1-.62386-0.58394Z"/>
        <path d="M109.64627,50.30677v-4.084h-0.84708V46.14915a0.47641,0.47641,0,0,1,.50333-0.55039h0.34374V44.5l0.6261-.33351h0.30282v1.43225h1.54888V45.6847a0.5362,0.5362,0,0,1-.59132.53812h-0.95755V49.6377a0.54935,0.54935,0,0,0,.62405.66906,0.84106,0.84106,0,0,0,.753-0.33555h0.08593a0.43894,0.43894,0,0,1,.08593.24758,1.06981,1.06981,0,0,1-1.26038.76523,1.389,1.389,0,0,1-1.21742-.67725"/>
        <path d="M112.35936,53.16922V53.08329a0.65812,0.65812,0,0,1,.753-0.753,2.27616,2.27616,0,0,1,.6793.15959h0.08593a1.11657,1.11657,0,0,0,.4174-0.58109l0.37853-.9371a5.77221,5.77221,0,0,0-.37853-1.17444l-1.59184-3.64814h-0.43172V46.06322a0.423,0.423,0,0,1,.50743-0.46446h1.89466V45.6847a0.48945,0.48945,0,0,1-.59132.46446h-0.33351v0.03274l1.42,3.45581,1.18467-3.45581V46.14915H115.5144V46.06322a0.42149,0.42149,0,0,1,.50538-0.46446h1.508V45.6847a0.42008,0.42008,0,0,1-.46242.46446h-0.088L115.007,51.4894a2.05139,2.05139,0,0,1-1.89466,1.76781,2.60946,2.60946,0,0,1-.753-0.088"/>
        <path d="M120.7769,48.24842a2.61588,2.61588,0,0,1,2.4017-2.81381q0.07986-.00631.16-0.00772a2.311,2.311,0,0,1,2.35708,2.7356,2.56689,2.56689,0,0,1-2.29933,2.80909q-0.10937.01092-.21938,0.01244a2.33971,2.33971,0,0,1-2.4-2.7356m3.951-.08593a1.86143,1.86143,0,0,0-1.38106-2.2411q-0.08414-.02-0.16986-0.03208a1.975,1.975,0,0,0-1.4343,2.35912,1.88615,1.88615,0,0,0,1.43932,2.24577q0.0777,0.017.15662,0.02742A1.95435,1.95435,0,0,0,124.72786,48.16249Z"/>
        <path d="M126.72483,50.89808V50.81215a0.4547,0.4547,0,0,1,.5504-0.46446h0.16164V46.22281h-0.84093V46.14915a0.48015,0.48015,0,0,1,.50743-0.55039h0.33351V44.25244A2.394,2.394,0,0,1,129.71,42.73426a3.21532,3.21532,0,0,1,.63429.08593l0.66906,0.17391v0.07366a0.52412,0.52412,0,0,1-.58109.59131,2.27886,2.27886,0,0,1-.79592-0.24553l-0.46651-.21689H129.086a1.745,1.745,0,0,0-.72431,1.72484v0.67725H129.841v0.08593a0.53752,0.53752,0,0,1-.59541.53812h-0.8839v4.12488h1.14171v0.088a0.53038,0.53038,0,0,1-.58474.46978q-0.02391-.0026-0.04749-0.00737h-2.14633"/>
        <path d="M137.11479,50.89808V50.81215a0.42223,0.42223,0,0,1,.50743-0.46446h0.33351V50.30677L137.37259,48.539h-2.65785l-0.58314,1.76781v0.04092h0.84094v0.088a0.48815,0.48815,0,0,1-.59132.46241H132.6564V50.81215a0.41789,0.41789,0,0,1,.50538-0.46446h0.12891l2.72741-7.151,0.72021-.1289a8.1131,8.1131,0,0,0,.46241,1.76576l1.821,5.51416h0.74477v0.088a0.48639,0.48639,0,0,1-.59541.46241h-2.0563m-2.175-3.02614h2.22L136.059,44.5Z"/>
        <path d="M140.37213,53.2572v-0.088a0.42168,0.42168,0,0,1,.50743-0.46241h0.17187V46.61156a0.92773,0.92773,0,0,1-.63428-0.67725v-0.088l1.30335-.41944h0.2578v0.755h0.043a1.94071,1.94071,0,0,1,1.465-.66906,2.1975,2.1975,0,0,1,2.15247,2.52076,2.67511,2.67511,0,0,1-2.6599,2.95043,2.54825,2.54825,0,0,1-1.00053-.19438v1.91717h1.25833v0.1289c0,0.33351-.2578.42149-0.59132,0.42149h-2.2732m4.29675-5.00878a1.71256,1.71256,0,0,0-1.60207-2.06653,1.62775,1.62775,0,0,0-1.08851.354v2.76834a1.01616,1.01616,0,0,0,1.00053,1.21741,1.93572,1.93572,0,0,0,1.71-2.13777Q144.68123,48.3158,144.66887,48.24842Z"/>
        <path d="M146.541,53.2572v-0.088a0.41944,0.41944,0,0,1,.50538-0.46241h0.16982V46.61156a0.92773,0.92773,0,0,1-.63428-0.67725v-0.088l1.30335-.41944h0.25985v0.755h0.04091a1.9525,1.9525,0,0,1,1.467-.66906,2.19639,2.19639,0,0,1,2.15247,2.52076,2.67435,2.67435,0,0,1-2.66194,2.95043,2.53023,2.53023,0,0,1-.99848-0.19438v1.91717h1.25833v0.1289c0,0.33351-.25985.42149-0.59336,0.42149H146.541m4.2947-5.00878a1.71383,1.71383,0,0,0-1.60411-2.06653,1.619,1.619,0,0,0-1.08646.354v2.76834a1.01585,1.01585,0,0,0,.99848,1.21741,1.937,1.937,0,0,0,1.71181-2.13864Q150.848,48.31537,150.83573,48.24842Z"/>
        <path d="M152.78156,50.89808V50.81215a0.4539,0.4539,0,0,1,.54834-0.46446h0.16369V43.53018l-0.92892.17391v-0.1289c0-.29259.21689-0.46446,0.7243-0.58109l0.83684-.17391h0.42149a7.54088,7.54088,0,0,0-.12891,1.51819V50.3477h0.88186v0.088a0.52107,0.52107,0,0,1-.62405.46241h-1.89464"/>
        <path d="M155.955,50.89808V50.81215a0.4547,0.4547,0,0,1,.55039-0.46446h0.16164V46.61156a0.93225,0.93225,0,0,1-.62405-0.67725v-0.088l1.30335-.41944h0.37443a9.21472,9.21472,0,0,0-.12891,1.67982v3.241h0.84094v0.088a0.52219,0.52219,0,0,1-.62405.46241H155.955m0.59541-7.40883a0.57671,0.57671,0,0,1,.56826-0.585q0.02793-.0004.05579,0.00189a0.58722,0.58722,0,1,1,.00169,1.17444h-0.00169a0.603,0.603,0,0,1-.62379-0.58138Z"/>
        <path d="M159.13051,48.37732a2.6559,2.6559,0,0,1,2.33955-2.9384q0.069-.00782.13824-0.012a1.59593,1.59593,0,0,1,1.79927,1.36258q0.00775,0.0561.0115,0.11264a2.94944,2.94944,0,0,1-.12071.96984l-3.241.16164v0.17187a1.817,1.817,0,0,0,1.50621,2.082q0.08629,0.01384.17362,0.01935a1.5931,1.5931,0,0,0,1.30335-.58313h0.08593a0.39661,0.39661,0,0,1,.08593.24758,1.49143,1.49143,0,0,1-1.7228,1.01281,2.32984,2.32984,0,0,1-2.35912-2.6067m3.32691-1.01076a1.09789,1.09789,0,0,0,.07571-0.46446,0.92219,0.92219,0,0,0-1.00053-1.01281,1.73078,1.73078,0,0,0-1.47522,1.71256Z"/>
        <path d="M168.15165,50.984V50.30677h-0.043a1.85319,1.85319,0,0,1-1.47317.67725,2.2325,2.2325,0,0,1-2.14428-2.56373,2.63518,2.63518,0,0,1,2.64761-2.90747,2.67415,2.67415,0,0,1,1.01281.19438v-2.132l-1.14171.21484v-0.131c0-.2885.21689-0.46241,0.72226-0.59131l1.0435-.24758h0.42149a8.65653,8.65653,0,0,0-.11867,1.51819v6.00931h0.79592v0.088c0,0.33351-.33147.4174-0.67725,0.46241l-1.04555.08593m-2.69059-2.77857a1.769,1.769,0,0,0,1.63686,2.10132,1.55812,1.55812,0,0,0,1.05373-.34579V47.19265a0.993,0.993,0,0,0-.96779-1.21741A1.89145,1.89145,0,0,0,165.46106,48.20545Z"/>
        <path d="M173.584,50.984l-0.16982-2.27319h0.12891a0.54589,0.54589,0,0,1,.54834.50742l0.24758,0.753a2.33966,2.33966,0,0,0,1.43224.46446,1.37188,1.37188,0,0,0,1.54888-1.47726,1.62319,1.62319,0,0,0-1.25833-1.55092l-1.01281-.46241a2.01807,2.01807,0,0,1-1.422-1.93763,2.14087,2.14087,0,0,1,2.318-1.94763q0.038,0.0033.07585,0.00795a3.28489,3.28489,0,0,1,1.34426.30282H177.449l0.42149-.21689h0.17391V44.5c0,0.42149-.12891.6793-0.33351,0.6793h-0.088l-0.41945-1.18468a2.15493,2.15493,0,0,0-1.18264-.37648,1.19247,1.19247,0,0,0-1.39133,1.26038,1.26635,1.26635,0,0,0,1.01281,1.30335l1.01077,0.46241a2.22408,2.22408,0,0,1-.96984,4.33972,4.66,4.66,0,0,1-1.38724-.25985h-0.08593l-0.46445.25985H173.584"/>
        <path d="M179.45005,48.29139a2.67339,2.67339,0,0,1,2.47532-2.85778q0.10846-.00778.21731-0.00672a2.75466,2.75466,0,0,1,1.51818.41944v0.088a1.03688,1.03688,0,0,1-.42149.83889h-0.12889l-0.6793-.667a0.489,0.489,0,0,0-.4174-0.21689,1.91279,1.91279,0,0,0-1.60233,2.17946l0.00845,0.05076a1.828,1.828,0,0,0,1.63686,2.18725,1.61917,1.61917,0,0,0,1.34426-.58313h0.088a0.51869,0.51869,0,0,1,.08389.24758,1.5,1.5,0,0,1-1.76576,1.01281,2.38132,2.38132,0,0,1-2.35708-2.69263"/>
        <path d="M184.47725,50.89808V50.81215a0.45147,0.45147,0,0,1,.5463-0.46446h0.16164V46.61156a0.9322,0.9322,0,0,1-.62405-0.67725v-0.088l1.30335-.41944H186.243a8.8617,8.8617,0,0,0-.12891,1.67982v3.241h0.83684v0.088a0.52107,0.52107,0,0,1-.62405.46241h-1.84963m0.59132-7.40883a0.57671,0.57671,0,0,1,.56826-0.585q0.02793-.0004.05579,0.00189a0.58722,0.58722,0,1,1,.00169,1.17444h-0.00169a0.60422,0.60422,0,0,1-.62385-0.58394Z"/>
        <path d="M187.65071,48.37732a2.65592,2.65592,0,0,1,2.33959-2.9384q0.06894-.00782.1382-0.012a1.5939,1.5939,0,0,1,1.7971,1.36066q0.00787,0.05705.01163,0.11456a3.01278,3.01278,0,0,1-.11867.96984l-3.243.16164v0.17187a1.816,1.816,0,0,0,1.50425,2.08162q0.08828,0.01421.17761,0.01969a1.59311,1.59311,0,0,0,1.30335-.58313h0.08389a0.38524,0.38524,0,0,1,.088.24758,1.49,1.49,0,0,1-1.7228,1.01281,2.32882,2.32882,0,0,1-2.35912-2.6067m3.329-1.01076a1.12527,1.12527,0,0,0,.07366-0.46446,0.92375,0.92375,0,0,0-1.00257-1.01281,1.736,1.736,0,0,0-1.47522,1.71256Z"/>
        <path d="M196.29536,50.89808V50.81215a0.44354,0.44354,0,0,1,.53607-0.46446h0.12891V47.4525c0-.92687-0.33147-1.27061-1.04146-1.27061a1.91018,1.91018,0,0,0-1.27266.55858v3.60723h0.84094v0.088a0.5231,0.5231,0,0,1-.6261.46241h-1.85169V50.81215a0.45388,0.45388,0,0,1,.54834-0.46446h0.16369V46.61156a0.94773,0.94773,0,0,1-.6261-0.67725v-0.088l1.30335-.41944h0.24758v0.92482h0.045a2.23864,2.23864,0,0,1,1.60411-.83889,1.40686,1.40686,0,0,1,1.59389,1.59389v3.241h0.88186v0.088a0.52107,0.52107,0,0,1-.62405.46241h-1.85171"/>
        <path d="M199.46883,48.29139a2.67191,2.67191,0,0,1,2.47223-2.85766q0.109-.00789.21836-0.00684a2.76707,2.76707,0,0,1,1.52022.41944v0.088a1.04253,1.04253,0,0,1-.42149.83889h-0.12889l-0.67725-.667a0.49625,0.49625,0,0,0-.42149-0.21689,1.91279,1.91279,0,0,0-1.60233,2.17946l0.00845,0.05076a1.82917,1.82917,0,0,0,1.63686,2.18725,1.63122,1.63122,0,0,0,1.34835-.58313h0.08389a0.50053,0.50053,0,0,1,.08593.24758A1.50153,1.50153,0,0,1,201.8259,50.984a2.38022,2.38022,0,0,1-2.35708-2.69263"/>
        <path d="M204.43874,48.37732a2.65592,2.65592,0,0,1,2.33959-2.9384q0.06894-.00782.1382-0.012a1.59517,1.59517,0,0,1,1.79737,1.36328q0.00766,0.05575.01136,0.11194a2.9567,2.9567,0,0,1-.11867.96984l-3.243.16164v0.17187a1.81841,1.81841,0,0,0,1.50922,2.08217q0.08582,0.01369.17265,0.01914a1.59621,1.59621,0,0,0,1.30335-.58313h0.08389a0.38524,0.38524,0,0,1,.088.24758,1.49115,1.49115,0,0,1-1.72484,1.01281,2.32844,2.32844,0,0,1-2.35708-2.6067m3.32691-1.01076a1.09788,1.09788,0,0,0,.07571-0.46446,0.92319,0.92319,0,0,0-1.00053-1.01281,1.73593,1.73593,0,0,0-1.47726,1.71256Z"/>
        <path d="M209.74624,50.34769v-0.1289a0.77168,0.77168,0,0,1,.667-0.83889h0.17391l0.28849,0.83889a1.246,1.246,0,0,0,.76523.2578,0.99542,0.99542,0,0,0,1.17444-.96779,0.88138,0.88138,0,0,0-.755-0.798l-0.72021-.2578a1.6084,1.6084,0,0,1-1.30335-1.508,1.66078,1.66078,0,0,1,1.7814-1.53068q0.05683,0.0043.11327,0.0125a3.00007,3.00007,0,0,1,1.72484.50742v0.08389a0.73908,0.73908,0,0,1-.62162.84028l-0.00448.00066h-0.12891l-0.37852-.753a0.83069,0.83069,0,0,0-.54834-0.17187,0.85268,0.85268,0,0,0-.32117,1.67485l0.02858,0.005,0.8,0.30077a1.52076,1.52076,0,0,1,1.25833,1.50591,1.76838,1.76838,0,0,1-1.93229,1.58764q-0.084-.00823-0.167-0.02444a3.09711,3.09711,0,0,1-1.89467-.63633"/>
        <path d="M76.22778,19.12054V18.92207a0.77522,0.77522,0,0,1,.78569-0.85526h0.51971V13.367h-5.1029v4.69983H74.0037v0.20052a0.81946,0.81946,0,0,1-.92073.85321H68.44861V18.92207a0.77522,0.77522,0,0,1,.78569-0.85526H69.754V8.14746H68.44861V7.94694a0.77456,0.77456,0,0,1,.78569-0.85321h4.7694V7.29425a0.81945,0.81945,0,0,1-.92073.85321h-0.6527v4.04918h5.1029V8.14746H76.22778V7.94694a0.77456,0.77456,0,0,1,.78569-0.85321h4.76734V7.29425a0.81843,0.81843,0,0,1-.92073.85321H80.20943v9.91936h1.57139v0.20052a0.81843,0.81843,0,0,1-.92073.85321H76.22778"/>
        <path d="M83.02073,17.097a2.21853,2.21853,0,0,1,.71817-1.57343l3.98165-1.21946V13.234a1.33578,1.33578,0,0,0-1.33813-1.55706,2.07045,2.07045,0,0,0-.753.11663l-0.24962.98825a1.201,1.201,0,0,1-1.25628.98621H83.40539V13.367c0-1.75553,2.32434-2.74378,4.24765-2.74378a2.77683,2.77683,0,0,1,2.55963,1.23787V17.1645c0,0.72022.18415,0.90232,0.83684,0.90232h0.401v0.20052c0,0.72022-.83684.98825-1.89057,0.98825a1.60856,1.60856,0,0,1-1.6389-1.18877H87.85355l-0.6527.46855a3.14739,3.14739,0,0,1-1.75553.72022,2.08106,2.08106,0,0,1-2.4246-2.15861m3.52947,0.72022h0.31714l0.85321-.36829V15.08978l-1.23787.36829a1.36771,1.36771,0,0,0-.9862,1.30539A0.911,0.911,0,0,0,86.5502,17.81719Z"/>
        <path d="M97.775,19.12054V18.92207a0.83635,0.83635,0,0,1,.81705-0.85522q0.01808-.00041.03616,0h0.20051V14.15268c0-1.17035-.268-1.823-1.43839-1.823a2.3296,2.3296,0,0,0-1.50591.534v5.20316h1.18877v0.20052a0.81946,0.81946,0,0,1-.92073.85321H92.35491V18.92207a0.83635,0.83635,0,0,1,.81705-0.85522q0.01808-.00041.03616,0h0.20051V12.84728a1.56875,1.56875,0,0,1-.85321-1.23583V11.2759l2.2916-.6527h1.03736v1.50591h0.06752a3.50369,3.50369,0,0,1,2.67626-1.37291,2.40939,2.40939,0,0,1,2.67626,2.67626v4.63435h1.32176v0.20052a0.81843,0.81843,0,0,1-.92073.85321H97.775"/>
        <path d="M110.07185,19.39062l-0.98826-.27008h-5.82107v-0.268a2.51829,2.51829,0,0,1,.58518-1.553l3.94892-5.37094h-2.82767L104.5004,13.768h-0.24962a0.79919,0.79919,0,0,1-.85526-0.85321,6.77169,6.77169,0,0,1,.20256-1.05373l0.24962-1.23787h0.40307l0.78569,0.268H110.657v0.25167a2.83459,2.83459,0,0,1-.6527,1.50591l-3.84661,5.418h2.92588l0.58722-.96984a1.13762,1.13762,0,0,1,.9862-0.71817h0.31714L110.389,19.39062h-0.31714"/>
        <path d="M111.8949,15.07341a4.1523,4.1523,0,0,1,4.38268-4.45021c2.24045,0,3.329,1.05373,3.329,2.42664a4.1432,4.1432,0,0,1-.268,1.50386l-4.90034.25167v0.133a2.3102,2.3102,0,0,0,2.22408,2.67626,2.5288,2.5288,0,0,0,2.15861-.91869h0.133a1.18792,1.18792,0,0,1,.20051.72022c0,0.98621-1.12125,1.83942-3.14481,1.83942a3.79913,3.79913,0,0,1-4.11465-4.18217m5.35253-1.43839a2.03191,2.03191,0,0,0,.135-0.72022,1.12792,1.12792,0,0,0-1.1724-1.30335,2.08026,2.08026,0,0,0-1.7719,2.27319v0.06752Z"/>
        <path d="M126.332,19.12054V18.92207a0.83754,0.83754,0,0,1,.81948-0.85522q0.01687-.00036.03373,0h0.20051V14.15268c0-1.17035-.268-1.823-1.43839-1.823a2.338,2.338,0,0,0-1.50591.534v5.20316h1.30539v0.20052a0.8048,0.8048,0,0,1-.90232.85321h-3.93254V18.92207a0.78553,0.78553,0,0,1,.71268-0.85217q0.03743-.00334.07505-0.00308h0.266V8.01446l-1.37086.268V7.87942a1.132,1.132,0,0,1,1.10488-1.03736l1.30335-.266h1.65732a13.14591,13.14591,0,0,0-.21893,2.60874v2.9443H124.509a3.50367,3.50367,0,0,1,2.67626-1.37291,2.40937,2.40937,0,0,1,2.67626,2.67626v4.63435h1.32177v0.20052a0.81781,0.81781,0,0,1-.91869.85321H126.332"/>
        <path d="M131.95459,14.93837a4.11027,4.11027,0,0,1,4.44817-4.31517,3.90595,3.90595,0,0,1,4.36632,4.31517,4.08352,4.08352,0,0,1-4.49931,4.31721,3.81475,3.81475,0,0,1-4.31517-4.31721m6.20573,0c0-1.88852-.45218-3.32691-1.823-3.32691-1.12124,0-1.77394,1.43839-1.77394,3.32691,0,1.89262.46854,3.329,1.83942,3.329C137.50762,18.26733,138.16032,16.831,138.16034,14.93837Z"/>
        <path d="M145.10265,16.26218a1.10322,1.10322,0,0,0-.1514.43377c0,0.46855.31918,0.55244,1.03737,0.60359l1.90694,0.11663a2.16064,2.16064,0,0,1,2.47575,2.15656c0,2.15861-2.82562,3.21233-5.25227,3.21233-1.45475,0-3.42922-.30077-3.42922-1.90694a2.4592,2.4592,0,0,1,2.27523-1.956,1.3102,1.3102,0,0,1-1.03737-1.30744,1.73427,1.73427,0,0,1,1.43839-1.43634V16.12714A2.72128,2.72128,0,0,1,142.07446,13.5c0-1.956,1.89058-2.87678,3.865-2.87678a4.84957,4.84957,0,0,1,2.709.78774h0.1514a1.13872,1.13872,0,0,1,.98621-0.5197h1.57342v0.20052a1.00851,1.00851,0,0,1-.8304,1.15957q-0.04489.00743-.09032,0.01078h-1.021a2.43612,2.43612,0,0,1,.30078,1.17035c0,2.02561-1.956,2.87882-3.84661,2.87882a5.88055,5.88055,0,0,1-.76932-0.04911m0.73659,5.33616c1.3545,0,2.19134-.38466,2.19134-1.30539,0-.58518-0.33556-0.82047-1.32177-0.90232l-2.14223-.20256a1.46005,1.46005,0,0,0-.66907,1.17035C143.89751,21.21367,144.61774,21.59833,145.83926,21.59833Zm1.4711-8.16587c0-1.23583-.43581-1.88852-1.43839-1.88852-0.96984,0-1.37291.58518-1.37291,1.88852,0,1.23992.33556,1.95809,1.37291,1.95809C146.87455,15.39055,147.31035,14.67238,147.31035,13.43246Z"/>
        <path d="M152.01224,15.07341a4.15334,4.15334,0,0,1,4.38268-4.45021c2.2425,0,3.329,1.05373,3.329,2.42664a4.1432,4.1432,0,0,1-.268,1.50386l-4.90034.25167v0.133a2.31019,2.31019,0,0,0,2.22408,2.67626,2.52624,2.52624,0,0,0,2.15861-.91869h0.133a1.17466,1.17466,0,0,1,.20256.72022c0,0.98621-1.12124,1.83942-3.14686,1.83942a3.79913,3.79913,0,0,1-4.11465-4.18217m5.35252-1.43839a2.03191,2.03191,0,0,0,.135-0.72022,1.12647,1.12647,0,0,0-1.17035-1.30335,2.08164,2.08164,0,0,0-1.77394,2.27319v0.06752Z"/>
        <path d="M161.0968,18.46989V18.13433a1.393,1.393,0,0,1,1.34664-1.43781l0.02423-.00058h0.268l0.58518,1.37087a1.73216,1.73216,0,0,0,.98621.27008,1.234,1.234,0,0,0,1.44044-1.23992,1.57752,1.57752,0,0,0-1.32177-1.12125l-1.03737-.38466a2.54961,2.54961,0,0,1-1.95809-2.4737,3.02819,3.02819,0,0,1,3.47413-2.504l0.05738,0.00988a6.72429,6.72429,0,0,1,2.9934.6527v0.33556a1.44262,1.44262,0,0,1-1.03737,1.43839h-0.33348l-0.65474-1.30539a1.48511,1.48511,0,0,0-.7857-0.20052,1.10367,1.10367,0,0,0-1.23582,1.17035,1.29469,1.29469,0,0,0,1.1192,1.05373l0.83684,0.31919a2.79289,2.79289,0,0,1,2.35912,2.55759c0,1.48954-1.30539,2.61079-3.79752,2.61079a6.82117,6.82117,0,0,1-3.329-.78569"/>
        <path d="M169.59414,15.00589a4.26929,4.26929,0,0,1,4.63435-4.38269,4.65787,4.65787,0,0,1,2.49212.6527v0.33555a1.65746,1.65746,0,0,1-.7857,1.57138H175.7344L174.697,11.9286a0.78,0.78,0,0,0-.6527-0.31714c-1.05373,0-1.90694,1.10283-1.90694,2.9934,0,2.2916,1.12124,3.00977,2.22408,3.00977a2.51964,2.51964,0,0,0,1.90694-.91869h0.11867a1.32947,1.32947,0,0,1,.20051.66906,2.52434,2.52434,0,0,1-2.87677,1.89057,3.82273,3.82273,0,0,1-4.1167-4.24969"/>
        <path d="M183.178,19.12054V18.92207a0.83754,0.83754,0,0,1,.81948-0.85522q0.01686-.00036.03373,0h0.20051V14.15268c0-1.17035-.268-1.823-1.43839-1.823a2.338,2.338,0,0,0-1.50591.534v5.20316h1.30539v0.20052a0.80478,0.80478,0,0,1-.90232.85321H177.758V18.92207a0.78552,0.78552,0,0,1,.71267-0.85217q0.03744-.00334.07507-0.00308h0.268V8.01446l-1.37291.268V7.87942a1.132,1.132,0,0,1,1.10488-1.03736l1.30335-.266h1.65731a13.14591,13.14591,0,0,0-.21893,2.60874v2.9443h0.06751a3.50367,3.50367,0,0,1,2.67626-1.37291,2.40937,2.40937,0,0,1,2.67626,2.67626v4.63435h1.32177v0.20052a0.81782,0.81782,0,0,1-.91868.85321H183.178"/>
        <path d="M188.8006,14.93837a4.11026,4.11026,0,0,1,4.44817-4.31517,3.90595,3.90595,0,0,1,4.36632,4.31517,4.08451,4.08451,0,0,1-4.49931,4.31721,3.81475,3.81475,0,0,1-4.31517-4.31721m6.20573,0c0-1.88852-.45218-3.32691-1.823-3.32691-1.12124,0-1.77394,1.43839-1.77394,3.32691,0,1.89262.46854,3.329,1.83942,3.329C194.35365,18.26733,195.00635,16.831,195.00635,14.93837Z"/>
        <path d="M198.92048,14.93837a4.11189,4.11189,0,0,1,4.45021-4.31517,3.90675,3.90675,0,0,1,4.36632,4.31517,4.08451,4.08451,0,0,1-4.49931,4.31721,3.81537,3.81537,0,0,1-4.31721-4.31721m6.20778,0c0-1.88852-.45218-3.32691-1.823-3.32691-1.12124,0-1.77394,1.43839-1.77394,3.32691,0,1.89262.46854,3.329,1.83942,3.329C204.47556,18.26733,205.12826,16.831,205.12828,14.93837Z"/>
        <path d="M208.9094,19.12054V18.92207a0.784,0.784,0,0,1,.7095-0.852q0.038-.00347.07619-0.00323h0.268V8.01446l-1.37291.268V7.87942a1.132,1.132,0,0,1,1.10488-1.03736l1.30539-.266h1.65527a12.70962,12.70962,0,0,0-.21689,2.60874v8.882h1.30539v0.20052a0.8064,0.8064,0,0,1-.90437.85321h-3.9305"/>
        <path d="M74.38631,31.1494V30.94888a0.82835,0.82835,0,0,1,.92073-0.85321h4.51568v0.20256a0.82521,0.82521,0,0,1-.91869.85117H78.503V34.863a8.818,8.818,0,0,1-4.43384,1.12125,5.56542,5.56542,0,0,1-5.75355-6.20574,5.90235,5.90235,0,0,1,6.33873-6.08911,5.80482,5.80482,0,0,1,2.54327.46855h0.133l0.78773-.33351H78.636v2.089a1.13776,1.13776,0,0,1-1.03736,1.37292h-0.133l-0.85321-2.02561a3.27167,3.27167,0,0,0-1.89057-.45218c-2.09108,0-3.66247,1.74121-3.66247,4.63435,0,2.94634,1.17035,5.2359,3.52947,5.2359a2.48951,2.48951,0,0,0,1.50591-.46855V31.1494H74.38631"/>
        <path d="M80.99513,35.85127V35.65076a0.78379,0.78379,0,0,1,.71125-0.85016q0.03814-.0034.07648-0.00305h0.266V29.578a1.57211,1.57211,0,0,1-.85321-1.23787V28.00459l2.2916-.6527H84.5246v1.57343h0.06752l0.51765-.58518a1.7906,1.7906,0,0,1,1.44043-.85321A1.104,1.104,0,0,1,87.73382,28.505q0.00318,0.0423.00311,0.08475a1.85066,1.85066,0,0,1-.53607,1.32176H87.08423a1.64709,1.64709,0,0,0-1.31972-.534,2.285,2.285,0,0,0-1.23992.4174v5.00265h1.89057V34.996a0.80626,0.80626,0,0,1-.90232.85526H80.99513"/>
        <path d="M88.32415,31.6691a4.11077,4.11077,0,0,1,4.44816-4.31721,3.90649,3.90649,0,0,1,4.36632,4.31721,4.083,4.083,0,0,1-4.49931,4.31517,3.8141,3.8141,0,0,1-4.31517-4.31517m6.20574,0c0-1.89057-.45218-3.329-1.823-3.329-1.12125,0-1.77395,1.43839-1.77395,3.329S91.40144,34.996,92.7723,34.996C93.87719,34.996,94.52989,33.55967,94.52988,31.6691Z"/>
        <path d="M103.73108,35.85127V35.65076a0.83462,0.83462,0,0,1,.81559-0.85321q0.0188-.00042.03762,0h0.20051V30.88341c0-1.17035-.268-1.8251-1.43839-1.8251a2.31972,2.31972,0,0,0-1.50591.53607v5.20316h1.18877V34.996a0.82093,0.82093,0,0,1-.92073.85526H98.311V35.65076a0.83462,0.83462,0,0,1,.81559-0.85321q0.0188-.00042.03762,0h0.20051V29.578a1.57211,1.57211,0,0,1-.85321-1.23787V28.00459l2.2916-.6527h1.03736V28.8578H101.908a3.49823,3.49823,0,0,1,2.67626-1.37087,2.40939,2.40939,0,0,1,2.67626,2.67626v4.63435h1.32176V34.996a0.82093,0.82093,0,0,1-.92073.85526h-3.93049"/>
        <path d="M109.21864,35.85127V35.65076a0.78225,0.78225,0,0,1,.708-0.85q0.03872-.00353.07765-0.0032h0.268V29.578a1.57211,1.57211,0,0,1-.85321-1.23787V28.00459l2.2916-.6527h1.23787a14.11013,14.11013,0,0,0-.20051,2.61079v4.83487h1.30539V34.996a0.80788,0.80788,0,0,1-.90437.85526h-3.9305m1.05373-11.44163a1.40416,1.40416,0,0,1,2.74378,0A1.40041,1.40041,0,0,1,110.27237,24.40964Z"/>
        <path d="M120.25924,35.85127V35.65076a0.83462,0.83462,0,0,1,.81559-0.85321q0.0188-.00042.03762,0H121.313V30.88341c0-1.17035-.268-1.8251-1.43839-1.8251a2.31969,2.31969,0,0,0-1.50591.53607v5.20316h1.18877V34.996a0.8209,0.8209,0,0,1-.92073.85526H114.8392V35.65076a0.83462,0.83462,0,0,1,.81559-0.85321q0.0188-.00042.03762,0h0.20051V29.578a1.57211,1.57211,0,0,1-.85321-1.23787V28.00459l2.2916-.6527h1.03736V28.8578h0.06752a3.49825,3.49825,0,0,1,2.67626-1.37087,2.40939,2.40939,0,0,1,2.67626,2.67626v4.63435h1.32176V34.996a0.82093,0.82093,0,0,1-.92073.85526h-3.9305"/>
        <path d="M128.908,32.99086a1.10957,1.10957,0,0,0-.14937.43377c0,0.46855.31714,0.55244,1.03736,0.60359l1.90694,0.11662a2.15928,2.15928,0,0,1,2.4737,2.15861c0,2.15656-2.82562,3.21029-5.25022,3.21029-1.45681,0-3.43127-.30077-3.43127-1.90694a2.45919,2.45919,0,0,1,2.27523-1.956,1.30621,1.30621,0,0,1-1.03531-1.30539,1.73636,1.73636,0,0,1,1.43839-1.43839V32.85582a2.71794,2.71794,0,0,1-2.29364-2.62716c0-1.956,1.89057-2.87678,3.865-2.87678a4.84,4.84,0,0,1,2.709.78774h0.1514a1.14439,1.14439,0,0,1,.98621-0.5197h1.57342v0.20051a1.01034,1.01034,0,0,1-.83189,1.16172q-0.04416.00731-.08884,0.01068h-1.01893a2.42977,2.42977,0,0,1,.30078,1.17035c0,2.02357-1.95809,2.87678-3.84662,2.87678a5.91263,5.91263,0,0,1-.77137-0.04911m0.73659,5.33616c1.3545,0,2.19135-.38466,2.19135-1.30539,0-.58518-0.33556-0.81843-1.32176-0.90232l-2.14019-.20256a1.45773,1.45773,0,0,0-.66906,1.17035C127.7049,37.94236,128.42307,38.327,129.64459,38.327Zm1.47317-8.16383c0-1.23787-.43582-1.89057-1.43839-1.89057-0.97188,0-1.37292.58518-1.37292,1.89057,0,1.23787.33556,1.956,1.37292,1.956C130.68194,32.11924,131.11775,31.40107,131.11775,30.16319Z"/>
        <path d="M135.81757,31.8021a4.15339,4.15339,0,0,1,4.38268-4.45021c2.2425,0,3.329,1.05373,3.329,2.42664a4.14319,4.14319,0,0,1-.268,1.50386l-4.90034.25167v0.135a2.31121,2.31121,0,0,0,2.22408,2.67626,2.52734,2.52734,0,0,0,2.15861-.92073h0.133a1.17466,1.17466,0,0,1,.20256.72022c0,0.98621-1.12124,1.83942-3.14686,1.83942a3.79913,3.79913,0,0,1-4.11465-4.18217m5.35252-1.43839a2.02232,2.02232,0,0,0,.135-0.72022,1.12647,1.12647,0,0,0-1.17035-1.30335,2.08243,2.08243,0,0,0-1.77394,2.27523v0.06547Z"/>
        <path d="M150.25466,35.85127V35.65076a0.83461,0.83461,0,0,1,.81559-0.85321q0.0188-.00042.03762,0h0.20051V30.88341c0-1.17035-.268-1.8251-1.43839-1.8251a2.31968,2.31968,0,0,0-1.50591.53607v5.20316h1.18877V34.996a0.82093,0.82093,0,0,1-.92073.85526h-3.79752V35.65076a0.83461,0.83461,0,0,1,.81559-0.85321q0.0188-.00042.03762,0h0.20051V29.578a1.57213,1.57213,0,0,1-.85321-1.23787V28.00459l2.29161-.6527h1.03737V28.8578h0.06751a3.50145,3.50145,0,0,1,2.67626-1.37087,2.40851,2.40851,0,0,1,2.67626,2.67626v4.63435h1.32177V34.996a0.81993,0.81993,0,0,1-.92073.85526h-3.93051"/>
    </g>
</svg>
