<?xml version="1.0" encoding="UTF-8"?>
<svg width="70px" height="37px" viewBox="0 0 70 37" version="1.1" xmlns="http://www.w3.org/2000/svg">
    <!-- Generator: Sketch 50.2 (55047) - http://www.bohemiancoding.com/sketch -->
    <title>gemeente-groningen-1</title>
    <desc>Created with Sketch.</desc>
    <defs></defs>
    <g id="Page-1" stroke="none" stroke-width="1" fill="none" fill-rule="evenodd">
        <g id="gemeente-groningen-1" fill="#FFFFFF" fill-rule="nonzero">
            <path d="M38.257,12.631 L37.518,17.881 L39.227,17.881 L39.791,13.855 C39.2952123,13.427889 38.7835164,13.0195997 38.257,12.631 Z M34.574,11.092 C33.682,11.092 32.914,11.389 32.272,12.151 L32.247,12.151 L32.374,11.247 L30.754,11.247 L29.822,17.882 L31.531,17.882 L31.986,14.636 C32.106,13.785 32.564,12.434 33.8,12.434 C34.895,12.434 34.753,13.53 34.639,14.339 L34.142,17.882 L35.849,17.882 L36.438,13.694 C36.648,12.201 36.128,11.092 34.574,11.092 Z M27.318,14.402 C27.162,15.511 26.652,16.695 25.339,16.695 C24.04,16.695 23.864,15.497 24.019,14.402 C24.158,13.41 24.831,12.432 25.939,12.432 C27.06,12.433 27.461,13.385 27.318,14.402 Z M26.126,11.092 C24.19,11.092 22.514,12.419 22.206,14.61 C21.938,16.516 22.985,18.036 25.152,18.036 C27.33,18.036 28.804,16.516 29.072,14.61 C29.38,12.419 28.076,11.092 26.126,11.092 Z M22.411,11.145 C22.242,11.092 22.063,11.092 21.898,11.092 C20.877,11.092 20.03,12.135 19.866,12.753 L19.842,12.753 L20.054,11.246 L18.536,11.246 L17.605,17.881 L19.311,17.881 L19.654,15.446 C19.788,14.493 20.034,12.741 21.424,12.741 C21.73,12.741 22.028,12.793 22.169,12.883 L22.411,11.145 Z M10.145,14.093 L13.605,14.093 L12.976,18.304 C5.989,21.659 3.023,14.603 3.268,11.216 L0,11.216 C0.205,15.122 1.582,17.908 3.482,19.713 C3.787,19.994 4.196,20.326 4.196,20.326 C7.769,23.105 12.743,22.855 15.535,20.346 L16.9,11.217 L10.574,11.217 L10.145,14.093 Z"
                  id="Shape"></path>
            <path d="M38.257,12.631 C38.727,12.985 39.317,13.434 39.792,13.855 L40.156,11.247 L38.45,11.247 L38.257,12.631 Z M54.812,5.384 L52.763,5.384 C52.889,4.865 53.268,4.27 53.983,4.27 C54.61,4.27 54.897,4.771 54.812,5.384 Z M54.083,3.673 C52.964,3.673 52.107,4.512 51.941,5.698 C51.758,7.002 52.28,7.865 53.686,7.865 C54.339,7.865 54.679,7.707 54.973,7.604 L55.077,6.868 C54.878,7.015 54.283,7.268 53.802,7.268 C53.112,7.268 52.573,6.725 52.686,5.932 L55.51,5.932 C55.691,4.646 55.401,3.673 54.083,3.673 Z M30.012,5.752 C30.116,5.008 30.515,4.27 31.259,4.27 C31.849,4.27 31.879,4.889 31.808,5.384 L31.474,7.771 L32.204,7.771 L32.486,5.752 C32.592,5.008 32.989,4.27 33.735,4.27 C34.325,4.27 34.355,4.889 34.286,5.384 L33.95,7.771 L34.68,7.771 L35.04,5.205 C35.163,4.333 34.89,3.674 33.881,3.674 C33.523,3.674 32.897,3.877 32.545,4.45 C32.412,3.908 31.985,3.674 31.528,3.674 C30.946,3.674 30.519,3.885 30.176,4.348 L30.159,4.348 L30.241,3.768 L29.56,3.768 L28.998,7.772 L29.727,7.772 L30.012,5.752 Z M26.834,4.27 C27.463,4.27 27.75,4.771 27.663,5.384 L25.614,5.384 C25.74,4.865 26.121,4.27 26.834,4.27 Z M26.539,7.865 C27.19,7.865 27.531,7.707 27.824,7.604 L27.928,6.868 C27.729,7.015 27.135,7.268 26.653,7.268 C25.962,7.268 25.424,6.725 25.537,5.932 L28.362,5.932 C28.544,4.646 28.253,3.672 26.933,3.672 C25.816,3.672 24.96,4.511 24.792,5.697 C24.61,7.002 25.135,7.865 26.539,7.865 Z M37.897,4.27 C38.525,4.27 38.811,4.771 38.726,5.384 L36.675,5.384 C36.804,4.865 37.183,4.27 37.897,4.27 Z M37.602,7.865 C38.254,7.865 38.594,7.707 38.888,7.604 L38.991,6.868 C38.793,7.015 38.198,7.268 37.717,7.268 C37.027,7.268 36.488,6.725 36.6,5.932 L39.427,5.932 C39.607,4.646 39.318,3.672 37.998,3.672 C36.88,3.672 36.023,4.511 35.857,5.697 C35.674,7.002 36.195,7.865 37.602,7.865 Z M42.137,4.27 C42.765,4.27 43.051,4.771 42.966,5.384 L40.915,5.384 C41.043,4.865 41.421,4.27 42.137,4.27 Z M41.841,7.865 C42.493,7.865 42.833,7.707 43.127,7.604 L43.23,6.868 C43.031,7.015 42.436,7.268 41.956,7.268 C41.266,7.268 40.727,6.725 40.839,5.932 L43.666,5.932 C43.846,4.646 43.557,3.672 42.236,3.672 C41.117,3.672 40.262,4.511 40.096,5.697 C39.913,7.002 40.435,7.865 41.841,7.865 Z M49.448,6.703 C49.336,7.504 49.752,7.865 50.504,7.865 C50.737,7.865 50.972,7.802 51.141,7.754 L51.229,7.127 C51.0726062,7.22004479 50.893979,7.26910683 50.712,7.269 C50.378,7.269 50.134,7.016 50.198,6.554 L50.507,4.365 L51.555,4.365 L51.639,3.767 L50.591,3.767 L50.753,2.606 L49.99,2.841 L49.861,3.767 L48.967,3.767 L48.883,4.365 L49.776,4.365 L49.448,6.703 Z M45.297,5.917 C45.433,4.944 45.9,4.27 46.731,4.27 C47.362,4.308 47.5,4.764 47.37,5.699 L47.077,7.771 L47.808,7.771 L48.142,5.393 C48.293,4.318 47.924,3.673 46.9,3.673 C46.35,3.673 45.782,3.948 45.502,4.403 L45.485,4.403 L45.575,3.766 L44.868,3.766 L44.306,7.77 L45.035,7.77 L45.297,5.917 Z M21.873,7.865 C22.719,7.865 23.252,7.722 23.561,7.621 L23.961,4.77 L22.044,4.77 L21.955,5.415 L23.095,5.415 L22.859,7.08 C22.661,7.118 22.513,7.174 21.976,7.174 C20.851,7.174 20.056,6.319 20.237,5.031 C20.409,3.805 21.37,2.886 22.618,2.886 C23.317,2.886 23.712,3.012 24.056,3.263 L24.229,2.471 C23.801,2.315 23.468,2.197 22.676,2.197 C21.024,2.197 19.654,3.319 19.417,5.008 C19.173,6.75 20.157,7.865 21.873,7.865 Z M67.917,11.092 C67.023,11.092 66.257,11.389 65.613,12.151 L65.59,12.151 L65.716,11.247 L64.097,11.247 L63.164,17.882 L64.873,17.882 L65.329,14.636 C65.448,13.785 65.904,12.433 67.141,12.433 C68.238,12.433 68.096,13.53 67.982,14.339 L67.484,17.882 L69.19,17.882 L69.779,13.694 C69.989,12.201 69.471,11.092 67.917,11.092 Z M60.881,13.914 L57.976,13.914 C58.177,13.025 58.756,12.353 59.712,12.353 C60.668,12.353 60.948,13.076 60.881,13.914 Z M59.786,11.092 C57.75,11.092 56.518,12.676 56.249,14.595 C55.941,16.772 57.026,18.035 59.193,18.035 C60.11,18.035 60.849,17.854 61.523,17.508 L61.719,16.103 C61.032,16.464 60.275,16.772 59.447,16.772 C58.389,16.772 57.736,16.168 57.809,15.099 L62.345,15.099 C62.672,12.779 62.221,11.092 59.786,11.092 Z M53.347,14.494 C53.192,15.6 52.626,16.541 51.555,16.541 C50.574,16.541 50.259,15.433 50.385,14.532 C50.529,13.512 51.05,12.431 52.21,12.431 C53.204,12.432 53.507,13.36 53.347,14.494 Z M53.753,12.15 L53.728,12.15 C53.362,11.388 52.73,11.091 51.863,11.091 C49.9,11.091 48.828,12.933 48.602,14.531 C48.352,16.307 48.871,17.88 50.807,17.88 C51.762,17.88 52.596,17.39 52.995,16.824 L53.019,16.824 C52.857,17.97 52.568,19.401 50.682,19.401 C50.147,19.401 49.334,19.104 48.851,18.819 L48.506,20.29 C49.272,20.638 50.033,20.739 50.71,20.739 C53.461,20.739 54.413,19.038 54.668,17.237 L55.509,11.246 L53.88,11.246 L53.753,12.15 Z M45.213,17.881 L46.921,17.881 L47.51,13.693 C47.72,12.201 47.2,11.091 45.647,11.091 C44.755,11.091 43.985,11.388 43.344,12.15 L43.319,12.15 L43.445,11.246 L41.828,11.246 L40.895,17.881 L42.602,17.881 L43.058,14.635 C43.178,13.784 43.636,12.432 44.871,12.432 C45.967,12.432 45.824,13.529 45.711,14.338 L45.213,17.881 Z M44.023,19.433 C47.395,24.218 48.294,28.673 46.486,31.663 C45.512,33.27 43.841,34.376 41.519,34.948 C35.663,36.389 26.924,34.2 18.72,29.235 C15.424,27.239 12.237,24.462 10.631,22.985 C10.1836792,22.9938749 9.73627976,22.9718224 9.292,22.919 C10.432,24.007 14.269,27.554 18.271,29.976 C26.666,35.056 35.653,37.285 41.725,35.79 C44.242,35.169 46.144,33.897 47.226,32.112 C49.154,28.921 48.361,24.327 45.068,19.432 L44.023,19.432 L44.023,19.433 Z M18.601,2.409 L18.733,1.528 C13.792,-0.474 9.808,-0.511 6.893,1.43 C4.237,3.198 3.154,6.276 3.04,8.023 L3.911,8.023 C4.028,6.616 4.934,3.776 7.373,2.153 C10.071,0.354 13.851,0.442 18.601,2.409 Z"
                  id="Shape"></path>
        </g>
    </g>
</svg>